<svg width="24" height="24" viewBox="0 0 24 24" fill="none" xmlns="http://www.w3.org/2000/svg">
<path fill-rule="evenodd" clip-rule="evenodd" d="M7.70711 7.70726L11 4.41436V18.0002H13V4.41436L16.2929 7.70726L17.7071 6.29304L12.7071 1.29304L12 0.585938L11.2929 1.29304L6.29289 6.29304L7.70711 7.70726ZM9 11.0002H6V21.0002H18V11.0002H15V9.00015H18.5C19.3284 9.00015 20 9.67172 20 10.5002V21.5002C20 22.3286 19.3284 23.0002 18.5 23.0002H5.5C4.67157 23.0002 4 22.3286 4 21.5002V10.5002C4 9.67172 4.67157 9.00015 5.5 9.00015H9V11.0002Z" fill="#333333"/>
</svg>
